<svg width="24" height="24" viewBox="0 0 24 24" fill="none" xmlns="http://www.w3.org/2000/svg">
<path d="M1 11.8828C1 12.1758 1.12891 12.4453 1.36328 12.668L9.14453 20.4375C9.37891 20.6602 9.625 20.7656 9.90625 20.7656C10.4805 20.7656 10.9375 20.3438 10.9375 19.7578C10.9375 19.4766 10.832 19.1953 10.6445 19.0195L8.01953 16.3477L3.37891 12.1172L3.13281 12.6914L6.90625 12.9258H21.7305C22.3398 12.9258 22.7617 12.4922 22.7617 11.8828C22.7617 11.2734 22.3398 10.8398 21.7305 10.8398H6.90625L3.13281 11.0742L3.37891 11.6602L8.01953 7.41797L10.6445 4.74609C10.832 4.55859 10.9375 4.28906 10.9375 4.00781C10.9375 3.42188 10.4805 3 9.90625 3C9.625 3 9.37891 3.09375 9.12109 3.35156L1.36328 11.0977C1.12891 11.3203 1 11.5898 1 11.8828Z" fill="#777777"/>
</svg>
