<svg width="24" height="24" viewBox="0 0 24 24" fill="none" xmlns="http://www.w3.org/2000/svg">
<g clip-path="url(#clip0_631_1244)">
<rect y="20" width="24" height="1.6" rx="0.8" fill="#B7B7B7"/>
<mask id="mask0_631_1244" style="mask-type:alpha" maskUnits="userSpaceOnUse" x="0" y="-1" width="24" height="20">
<path d="M0.800049 18.8H23.2V-0.400011H0.800049V18.8Z" fill="white"/>
</mask>
<g mask="url(#mask0_631_1244)">
<circle cx="12" cy="12" r="10.2" stroke="#B7B7B7" stroke-width="2"/>
<path d="M9.46004 16.9569C9.78157 16.9569 10.019 16.7585 10.0982 16.4509L11.9729 9.55954H12.0224L13.8972 16.4509C13.9714 16.7585 14.2137 16.9569 14.5303 16.9569C14.8618 16.9569 15.119 16.7535 15.1833 16.431L16.7909 8.62184C16.8058 8.53253 16.8206 8.44819 16.8206 8.35888C16.8206 8.09097 16.6079 7.92725 16.3408 7.92725C16.0984 7.92725 15.9154 8.07609 15.8709 8.31919L14.5056 15.6521H14.466L12.5022 8.35888C12.4379 8.10586 12.2846 7.94709 12.0026 7.94709C11.7157 7.94709 11.5574 8.12074 11.4882 8.37873L9.52929 15.6521H9.48971L8.12445 8.31919C8.07993 8.08105 7.8969 7.92725 7.64957 7.92725C7.38245 7.92725 7.17469 8.09097 7.17469 8.35888C7.17469 8.44323 7.18459 8.52757 7.19943 8.61688L8.81203 16.431C8.87633 16.7535 9.12861 16.9569 9.46004 16.9569ZM6.81854 12.7199H17.1768C17.3598 12.7199 17.4983 12.5761 17.4983 12.3925C17.4983 12.204 17.3598 12.07 17.1768 12.07H6.81854C6.64046 12.07 6.50195 12.204 6.50195 12.3925C6.50195 12.5761 6.64046 12.7199 6.81854 12.7199Z" fill="#B7B7B7" stroke="#B7B7B7" stroke-width="0.5"/>
</g>
</g>
<defs>
<clipPath id="clip0_631_1244">
<rect width="24" height="24" fill="white"/>
</clipPath>
</defs>
</svg>
