<svg width="24" height="24" viewBox="0 0 24 24" fill="none" xmlns="http://www.w3.org/2000/svg">
<path fill-rule="evenodd" clip-rule="evenodd" d="M20.2308 22.9937H3.78123C1.26442 22.9937 0 21.7533 0 19.2606V4.55716C0 2.06444 1.26442 0.824097 3.78123 0.824097H20.2308C22.7476 0.824097 24 2.07648 24 4.55716V19.2606C24 21.7413 22.7476 22.9937 20.2308 22.9937ZM19.1333 21.6H4.87707C2.69583 21.6 1.6 20.7048 1.6 18.9058V8.29419C1.6 6.49518 2.69583 5.60001 4.87707 5.60001H19.1333C21.3146 5.60001 22.4 6.50387 22.4 8.29419V18.9058C22.4 20.6961 21.3146 21.6 19.1333 21.6Z" fill="#B7B7B7"/>
<path d="M8.95729 19.048C9.3222 19.048 9.59167 18.8228 9.6815 18.4736L11.8092 10.6525H11.8653L13.9931 18.4736C14.0773 18.8228 14.3524 19.048 14.7117 19.048C15.0878 19.048 15.3798 18.8171 15.4527 18.4511L17.2773 9.58829C17.2941 9.48694 17.311 9.39122 17.311 9.28986C17.311 8.9858 17.0696 8.79999 16.7664 8.79999C16.4913 8.79999 16.2836 8.96891 16.2331 9.24482L14.6836 17.5671H14.6387L12.4099 9.28986C12.3369 9.0027 12.1629 8.82251 11.8429 8.82251C11.5173 8.82251 11.3377 9.01959 11.259 9.31239L9.03589 17.5671H8.99097L7.4415 9.24482C7.39097 8.97454 7.18326 8.79999 6.90255 8.79999C6.5994 8.79999 6.36361 8.9858 6.36361 9.28986C6.36361 9.38559 6.37484 9.48131 6.39167 9.58267L8.22185 18.4511C8.29483 18.8171 8.58115 19.048 8.95729 19.048ZM5.9594 14.2393H17.7152C17.9229 14.2393 18.0801 14.076 18.0801 13.8677C18.0801 13.6537 17.9229 13.5017 17.7152 13.5017H5.9594C5.75729 13.5017 5.6001 13.6537 5.6001 13.8677C5.6001 14.076 5.75729 14.2393 5.9594 14.2393Z" fill="#B7B7B7" stroke="#B7B7B7" stroke-width="0.5"/>
</svg>
