<svg width="24" height="24" viewBox="0 0 24 24" fill="none" xmlns="http://www.w3.org/2000/svg">
<path fill-rule="evenodd" clip-rule="evenodd" d="M2 2C0.895431 2 0 2.89543 0 4V18C0 19.1046 0.89543 20 2 20H22C23.1046 20 24 19.1046 24 18V4C24 2.89543 23.1046 2 22 2H2ZM2.5 3.5C1.94772 3.5 1.5 3.94772 1.5 4.5V17.5C1.5 18.0523 1.94772 18.5 2.5 18.5H21.5C22.0523 18.5 22.5 18.0523 22.5 17.5V4.5C22.5 3.94772 22.0523 3.5 21.5 3.5H2.5Z" fill="#B7B7B7"/>
<path d="M8 20H16V21C16 21.5523 15.5523 22 15 22H9C8.44772 22 8 21.5523 8 21V20Z" fill="#B7B7B7"/>
<path d="M10.6364 14.6476L14.9782 12.1143C15.7091 11.681 15.7091 10.6143 14.9782 10.181L10.6364 7.64764C9.90545 7.22541 9 7.75875 9 8.6143V13.681C9 14.5254 9.90545 15.0699 10.6364 14.6476Z" fill="#B7B7B7"/>
</svg>
